<svg xmlns="http://www.w3.org/2000/svg" width="221" height="45"><g fill="none" fill-rule="evenodd"><path fill="#4C8ECC" d="M10.127 16.657l9.277-5.373V-.061L.279 10.993z"/><path fill="#2F74B0" d="M19.423 32.726l9.29-5.364 9.825-5.679v11.352l-19.1 11.034zm-.019-21.442l9.29 5.363 9.82-5.675L19.403-.06z"/><path fill="#4C8ECC" d="M19.425 32.724l-9.298-5.351L.31 33.058l19.13 11.01z"/><path fill="#2F74B0" d="M10.127 27.373V16.657L.279 10.993.31 33.059z"/><path fill="#808183" d="M19.404 11.283l9.29 5.364v10.727l-9.29-5.363z"/><path fill="#5A5A5D" d="M19.404 11.283l-9.277 5.375v10.715l9.277-5.362V11.285"/><path fill="#FFF" d="M65.16 28.787c-1.99 1.963-4.563 2.875-7.272 2.875-7.023 0-10.175-4.838-10.203-9.926-.028-5.087 3.29-10.147 10.203-10.147 2.598 0 5.116.967 7.078 2.93l-2.074 1.991c-1.382-1.354-3.207-1.99-5.004-1.99-4.92 0-7.162 3.622-7.134 7.19.027 3.538 2.13 7.05 7.134 7.05 1.797 0 3.788-.747 5.143-2.102l2.128 2.13zm11.363-8.323l5.501-8.543h3.733v.138L78.071 23.34v7.935h-3.098V23.34L67.51 12.06v-.139h3.677zM92.919 28.4h5.806c1.714 0 4.09-.553 4.09-2.682 0-2.074-2.293-3.014-4.062-3.014h-5.834V28.4zm0-8.461h5.834c2.322 0 3.483-.912 3.483-2.433 0-1.355-1.188-2.792-3.511-2.792h-5.806v5.225zm5.806-8.018c3.677 0 6.58 1.687 6.58 5.53 0 1.632-.857 3.096-2.682 3.843 2.323.691 3.29 2.986 3.29 4.451 0 4.231-3.373 5.531-7.188 5.531H89.85V11.921h8.875zm26.597 19.355h-14.294V11.92h14.212v3.014h-11.115v5.225h10.673v2.876h-10.673v5.198h11.197zm8.461-16.536v7.024h5.89c2.571 0 3.704-1.63 3.704-3.456 0-1.742-1.133-3.567-3.677-3.567h-5.917zm13.604 16.536h-3.623l-5.889-6.692h-4.092v6.692h-3.097V11.893c3.014 0 6 .029 9.014.029 4.48 0 6.83 3.068 6.83 6.332 0 2.764-1.438 5.473-5.254 6.026l5.778 6.442.333.554z"/><path fill="#2F74B0" d="M160.575 17.34l-2.487 6.166h4.948l-2.46-6.166zm4.313 10.756h-8.654l-1.272 3.18h-5.806l8.682-19.355h5.53l8.653 19.355h-5.86l-1.273-3.18zm15.54-11.806v4.645h4.036c1.438 0 2.073-1.078 2.073-2.24 0-1.216-.691-2.405-2.13-2.405h-3.98zm12.44 14.986h-6.026l-4.506-6.277h-1.908v6.277h-5.476V11.92h9.456c4.95 0 7.52 3.18 7.52 6.663 0 2.379-.828 4.397-4.091 5.835l5.032 6.525v.332zm20.959-19.024l-7.853 9.152c2.71 2.987 5.834 6.47 8.516 9.54v.332h-6.774l-5.53-6.444v6.444h-5.475V11.92h5.475v6.359c1.66-2.047 3.456-4.314 5.088-6.36h6.553v.333zm4.571-2.709h-.245v.807h.239c.431 0 .552-.128.552-.42 0-.286-.2-.387-.546-.387m.924 2.201h-.227c-.046 0-.08-.013-.099-.046-.06-.107-.107-.193-.18-.32-.185-.299-.285-.465-.439-.63a.186.186 0 00-.145-.075h-.08v.938c0 .067-.053.126-.12.126h-.153a.13.13 0 01-.126-.126V9.345c0-.066.06-.118.127-.118h.638c.565 0 .838.324.838.696 0 .352-.2.68-.651.692.125.067.404.46.703.992.034.059.014.139-.085.139m-.826-3.184c-1.037 0-1.862.837-1.862 1.934s.826 1.936 1.863 1.936 1.862-.84 1.862-1.936c0-1.097-.826-1.934-1.863-1.934m0 4.195a2.241 2.241 0 01-2.26-2.261 2.241 2.241 0 012.26-2.261c1.23 0 2.261.97 2.261 2.26a2.247 2.247 0 01-2.26 2.262"/></g></svg>